HIERARCHY
ROOT Pelvis
{
	OFFSET 0.000000 0.000000 0.000000
	CHANNELS 6 Xposition Yposition Zposition Xrotation Yrotation Zrotation
	JOINT LeftUpLeg_virtual
	{
		OFFSET 0.000000 0.000000 0.000000
		CHANNELS 3 Xrotation Yrotation Zrotation
		JOINT LeftUpLeg
		{
			OFFSET 8.479700 -4.795502 -0.379100
			CHANNELS 3 Xrotation Yrotation Zrotation
			JOINT LeftLeg
			{
				OFFSET 0.024144 -32.555107 0.112900
				CHANNELS 3 Xrotation Yrotation Zrotation
				JOINT LeftFoot
				{
					OFFSET -0.024144 -32.638630 -3.012600
					CHANNELS 3 Xrotation Yrotation Zrotation
					JOINT LeftToeBase
					{
						OFFSET 0.970200 -13.225400 11.864200
						CHANNELS 3 Xrotation Yrotation Zrotation
						End Site
						{
							OFFSET 0 0 0
						}
					}
				}
			}
		}
	}
	JOINT RightUpLeg_virtual
	{
		OFFSET 0.000000 0.000000 0.000000
		CHANNELS 3 Xrotation Yrotation Zrotation
		JOINT RightUpLeg
		{
			OFFSET -8.479700 -4.795502 -0.379100
			CHANNELS 3 Xrotation Yrotation Zrotation
			JOINT RightLeg
			{
				OFFSET -0.023144 -32.555092 0.112900
				CHANNELS 3 Xrotation Yrotation Zrotation
				JOINT RightFoot
				{
					OFFSET 0.023144 -32.638641 -3.012700
					CHANNELS 3 Xrotation Yrotation Zrotation
					JOINT RightToeBase
					{
						OFFSET -0.970200 -13.225400 11.864200
						CHANNELS 3 Xrotation Yrotation Zrotation
						End Site
						{
							OFFSET 0 0 0
						}
					}
				}
			}
		}
	}
	JOINT Hips_virtual
	{
		OFFSET 0.000000 0.000000 0.000000
		CHANNELS 3 Xrotation Yrotation Zrotation
		JOINT Hips
		{
			OFFSET -0.000000 -0.000000 -0.000000
			CHANNELS 3 Xrotation Yrotation Zrotation
			JOINT Spine
			{
				OFFSET 0.000000 7.722000 1.166200
				CHANNELS 3 Xrotation Yrotation Zrotation
				JOINT Spine1
				{
					OFFSET 0.000000 12.024101 0.248800
					CHANNELS 3 Xrotation Yrotation Zrotation
					JOINT Spine2
					{
						OFFSET 0.000000 11.502998 -0.491200
						CHANNELS 3 Xrotation Yrotation Zrotation
						JOINT Neck_virtual
						{
							OFFSET 0.000000 0.000000 0.000000
							CHANNELS 3 Xrotation Yrotation Zrotation
							JOINT Neck
							{
								OFFSET 0.000000 18.430702 -3.123100
								CHANNELS 3 Xrotation Yrotation Zrotation
								JOINT Head
								{
									OFFSET 0.000000 9.051102 1.034000
									CHANNELS 3 Xrotation Yrotation Zrotation
									End Site
									{
										OFFSET 0 0 0
									}
								}
							}
						}
						JOINT LeftShoulder_virtual
						{
							OFFSET 0.000000 0.000000 0.000000
							CHANNELS 3 Xrotation Yrotation Zrotation
							JOINT LeftShoulder
							{
								OFFSET 6.197800 13.665199 -4.064700
								CHANNELS 3 Xrotation Yrotation Zrotation
								JOINT LeftArm
								{
									OFFSET 7.778100 -0.187103 -1.709300
									CHANNELS 3 Xrotation Yrotation Zrotation
									JOINT LeftForeArm
									{
										OFFSET 22.049376 0.000000 0.000000
										CHANNELS 3 Xrotation Yrotation Zrotation
										JOINT LeftHand
										{
											OFFSET 23.009392 0.000000 0.000000
											CHANNELS 3 Xrotation Yrotation Zrotation
											End Site
											{
												OFFSET 0 0 0
											}
										}
									}
								}
							}
						}
						JOINT RightShoulder_virtual
						{
							OFFSET 0.000000 0.000000 0.000000
							CHANNELS 3 Xrotation Yrotation Zrotation
							JOINT RightShoulder
							{
								OFFSET -6.197800 13.665199 -4.064700
								CHANNELS 3 Xrotation Yrotation Zrotation
								JOINT RightArm
								{
									OFFSET -7.778100 -0.187103 -1.709300
									CHANNELS 3 Xrotation Yrotation Zrotation
									JOINT RightForeArm
									{
										OFFSET -22.049376 0.000000 0.000000
										CHANNELS 3 Xrotation Yrotation Zrotation
										JOINT RightHand
										{
											OFFSET -23.009392 0.000000 0.000000
											CHANNELS 3 Xrotation Yrotation Zrotation
											End Site
											{
												OFFSET 0 0 0
											}
										}
									}
								}
							}
						}
					}
				}
			}
		}
	}
}
MOTION
Frames: 6
Frame Time: 0.03333333
0.369635 88.216194 -4.504761 0.000000 0.000000 0.000000 -92.964619 0.968452 1.668881 -3.670410 17.787609 18.661774 6.457270 5.338905 1.520596 23.243067 29.396895 -30.565769 0.000000 0.000000 0.000000 -92.964619 0.968452 1.668881 -2.053368 -17.653628 -13.375395 3.851413 -7.651928 -8.077523 34.808259 -28.971818 29.177154 0.000000 0.000000 0.000000 -92.964619 0.968452 1.668881 0.000000 0.000000 0.000000 3.833985 1.366099 -0.667529 17.173669 2.320172 -1.615368 0.000000 0.000000 0.000000 15.078708 2.910057 -1.904893 1.032868 0.830501 -3.592069 0.000000 0.000000 0.000000 15.078708 2.910057 -1.904893 0.987223 5.865646 -0.070264 17.540358 -48.233635 -39.213431 0.000060 -78.453001 0.000066 0.000000 0.000000 0.000000 15.078708 2.910057 -1.904893 1.003560 3.077429 16.318584 -30.625322 39.526120 60.112536 -179.999950 57.388738 179.999937 0.000000 0.000000 0.000000 
0.339496 88.174301 -4.450455 0.000000 0.000000 0.000000 -92.872739 0.821988 1.579572 -3.782467 17.754218 18.679686 6.369141 5.430727 1.564949 23.768830 29.392223 -30.566480 0.000000 0.000000 0.000000 -92.872739 0.821988 1.579572 -2.252176 -17.602282 -13.280225 3.802389 -7.764025 -7.944451 35.097733 -28.793212 28.942636 0.000000 0.000000 0.000000 -92.872739 0.821988 1.579572 0.000000 0.000000 0.000000 3.767236 1.341438 -0.631188 16.775781 2.298676 -1.540694 0.000000 0.000000 0.000000 14.708503 2.873933 -1.840032 1.206952 0.819801 -3.467082 0.000000 0.000000 0.000000 14.708503 2.873933 -1.840032 1.057898 5.646926 -0.072704 17.692936 -47.941129 -39.648852 -0.000026 -78.307115 -0.000057 0.000000 0.000000 0.000000 14.708503 2.873933 -1.840032 0.998594 3.039514 16.387543 -30.378356 39.942386 60.251879 -179.999978 58.034478 179.999964 0.000000 0.000000 0.000000 
0.318248 88.135902 -4.375305 0.000000 0.000000 0.000000 -92.661673 0.740720 1.487667 -3.908732 17.704641 18.700756 6.114952 5.542232 1.561362 24.524018 29.386267 -30.568068 0.000000 0.000000 0.000000 -92.661673 0.740720 1.487667 -2.472459 -17.546348 -13.199503 3.536721 -7.896734 -7.748149 35.755603 -28.624367 28.721895 0.000000 0.000000 0.000000 -92.661673 0.740720 1.487667 0.000000 0.000000 0.000000 3.670755 1.286261 -0.597739 16.309057 2.217899 -1.457732 0.000000 0.000000 0.000000 14.304894 2.791178 -1.752528 1.371155 0.810484 -3.366245 0.000000 0.000000 0.000000 14.304894 2.791178 -1.752528 1.036042 5.431827 -0.068784 17.978695 -47.538974 -40.193751 0.000047 -78.189458 0.000042 0.000000 0.000000 0.000000 14.304894 2.791178 -1.752528 1.002744 3.007377 16.447022 -30.000684 40.337653 60.294267 -179.999978 58.563251 179.999978 0.000000 0.000000 0.000000 
0.303480 88.103561 -4.286987 0.000000 0.000000 0.000000 -92.243153 0.751630 1.373384 -4.248784 17.592474 18.757921 5.978636 5.765273 1.494617 25.426040 29.373584 -30.566982 0.000000 0.000000 0.000000 -92.243153 0.751630 1.373384 -2.829245 -17.470533 -12.936952 3.117869 -7.552776 -7.806840 37.152934 -28.878979 28.928826 0.000000 0.000000 0.000000 -92.243153 0.751630 1.373384 0.000000 0.000000 0.000000 3.566782 1.179308 -0.559089 15.819690 2.050238 -1.351606 0.000000 0.000000 0.000000 13.873240 2.617391 -1.626179 1.388079 0.796731 -3.274180 0.000000 0.000000 0.000000 13.873240 2.617391 -1.626179 1.007916 5.213137 -0.072448 18.126070 -46.854784 -41.156606 -0.000015 -78.131531 -0.000010 0.000000 0.000000 0.000000 13.873240 2.617391 -1.626179 0.964781 2.960575 16.488493 -29.252146 40.564883 59.893123 -179.999937 58.618582 179.999950 0.000000 0.000000 0.000000 
0.294830 88.082939 -4.168190 0.000000 0.000000 0.000000 -91.609038 0.847893 1.233116 -4.885920 17.383897 18.861409 6.085796 6.038146 1.358191 26.400578 29.354350 -30.566083 0.000000 0.000000 0.000000 -91.609038 0.847893 1.233116 -3.433436 -17.329892 -12.703296 3.040673 -7.580307 -7.885669 37.888152 -28.952209 29.077311 0.000000 0.000000 0.000000 -91.609038 0.847893 1.233116 0.000000 0.000000 0.000000 3.460940 1.057198 -0.517928 15.322309 1.836152 -1.235604 0.000000 0.000000 0.000000 13.427522 2.371649 -1.472054 1.467857 0.767050 -3.162883 0.000000 0.000000 0.000000 13.427522 2.371649 -1.472054 0.975470 4.991310 -0.080094 18.149373 -45.959250 -42.436515 0.000042 -78.113827 0.000044 0.000000 0.000000 0.000000 13.427522 2.371649 -1.472054 0.920523 2.913159 16.512394 -28.276005 40.716093 59.228969 -179.999923 58.201224 179.999909 0.000000 0.000000 0.000000 
0.290572 88.071121 -4.051453 0.000000 0.000000 0.000000 -90.861467 0.995061 1.081829 -5.642012 17.146679 18.970965 6.216333 6.342014 1.192408 27.418999 29.333402 -30.564642 0.000000 0.000000 0.000000 -90.861467 0.995061 1.081829 -4.065194 -17.182628 -12.506278 2.962735 -7.590120 -7.939257 38.645818 -29.075524 29.324478 0.000000 0.000000 0.000000 -90.861467 0.995061 1.081829 0.000000 0.000000 0.000000 3.353671 0.939892 -0.475329 14.820112 1.635045 -1.127553 0.000000 0.000000 0.000000 12.974519 2.157897 -1.338859 1.424446 0.745776 -3.085974 0.000000 0.000000 0.000000 12.974519 2.157897 -1.338859 0.939460 4.766815 -0.098708 18.198822 -45.063037 -43.677021 0.000262 -78.094115 0.000265 0.000000 0.000000 0.000000 12.974519 2.157897 -1.338859 0.868488 2.864465 16.515324 -27.084167 40.772879 58.335689 179.999964 57.490563 -179.999978 0.000000 0.000000 0.000000 
